<svg xmlns="http://www.w3.org/2000/svg" xmlns:xlink="http://www.w3.org/1999/xlink" viewBox="0 0 452.31 173.75"><defs><style>.cls-1,.cls-4{fill:none;}.cls-2{clip-path:url(#clip-path);}.cls-3{fill:#fff;fill-rule:evenodd;}.cls-4{stroke:#008752;stroke-width:1.59px;}.cls-5{fill:#008752;}</style><clipPath id="clip-path"><rect class="cls-1" width="146.32" height="56.2"/></clipPath><symbol id="logo" data-name="logo" viewBox="0 0 146.32 56.21"><g class="cls-2"><path class="cls-3" d="M73.21,0c40.28,0,73.11,12.65,73.11,28.21s-32.83,28-73.11,28C32.73,56.21,0,43.76,0,28.21S32.73,0,73.21,0"/></g><g class="cls-2"><path class="cls-4" d="M73.2,2.44c38.93,0,70.67,11.56,70.67,25.77S112.13,53.78,73.2,53.78c-39.13,0-70.77-11.37-70.77-25.58S34.07,2.44,73.2,2.44Z"/></g><path class="cls-5" d="M41.15,22.93a9.7,9.7,0,0,0-1.88-4.38l-.33-.43c-2.35-2.74-6.43-3.72-9.48-3.73a13.55,13.55,0,0,0-8.55,3.54c-2.62,2.44-3.53,4.82-2.95,7.72.54,2.71,2.17,4.14,4.72,4.14s4.86-2.89,5.45-4.51c.33-.92.09-1.36-.16-1.58a1.13,1.13,0,0,0-1-.27c-.81.18-1.33,1.27-1.82,2.32A3.87,3.87,0,0,1,22.74,28c-1.89.19-3-.7-3.29-2.64-.39-2.65.54-4.66,3.11-6.74a12.88,12.88,0,0,1,6.86-2.7,11.88,11.88,0,0,1,7.88,2.67c-4.11,3.35-6.2,7.17-8,10.57-1.55,2.92-2.91,5.44-5.22,6.78a7.14,7.14,0,0,0-3.56-.44c-1.13.16-1.76.43-2,.87l-.13.82c.2.78,1.35,1.23,2.92,1.15A4.83,4.83,0,0,0,23.11,38l.45-.15a16.41,16.41,0,0,0,4.45.67,13.22,13.22,0,0,0,10.21-4.94,13.1,13.1,0,0,0,2.94-10.67m-4.21,9.71a10.94,10.94,0,0,1-8.48,4.26A10.53,10.53,0,0,1,26,36.47c4.16-2.44,6.16-6,8.07-9.56a28.41,28.41,0,0,1,4.52-6.65,8.49,8.49,0,0,1,1.09,2.87,8.86,8.86,0,0,1,.17,1.73A12.59,12.59,0,0,1,36.94,32.63Z"/><path class="cls-5" d="M49.29,27.84a4.78,4.78,0,0,0-1.42,2.52c-.58.19-1.14.39-1.67.6l2.41-3.37H45.15L38.1,38h3.3L43,35.52a9,9,0,0,1,5-3.71,3.47,3.47,0,0,0,.74,1.26A.69.69,0,0,0,50,32.57a.82.82,0,0,0-.24-.58,2.61,2.61,0,0,1-.36-.75A4.65,4.65,0,0,0,50.59,30a3.35,3.35,0,0,0,.48-1.64,1.29,1.29,0,0,0-.09-.51.71.71,0,0,0-.52-.43,1.51,1.51,0,0,0-1.18.43"/><path class="cls-5" d="M46.38,35.62A1.63,1.63,0,0,0,46,37a1.65,1.65,0,0,0,1.65,1.37,1.61,1.61,0,0,0,1.24-.6,1.63,1.63,0,0,0,.35-1.35A1.66,1.66,0,0,0,47.62,35a1.63,1.63,0,0,0-1.24.6"/><path class="cls-5" d="M62.34,19.46A8.38,8.38,0,0,0,60,25.86c.33,2.66,1.8,3.93,4.46,3.88s4.5-2.59,5.18-4.28c.34-.83.35-1.37,0-1.68a1.2,1.2,0,0,0-1.11-.4c-.58.11-1.08.67-1.55,1.76a8.42,8.42,0,0,1-1.29,2.15,2.08,2.08,0,0,1-1.64.92,2.4,2.4,0,0,1-1.8-.51,2.68,2.68,0,0,1-.85-1.89,7.39,7.39,0,0,1,2.28-5.43,15.19,15.19,0,0,1,11.07-4.56,11.76,11.76,0,0,1,4.36.8C76,18.9,73.92,23,72,27c-2.5,5.19-4.86,10.1-9.33,10.1a4.32,4.32,0,0,1-2.55-.87,2.14,2.14,0,0,1-.79-1.43l0-.21-.18-.12a.8.8,0,0,0-1-.06c-.22.15-.43.49-.25,1.19.55,1.85,2.34,2.95,4.8,2.95,6.5,0,9.78-5.29,12.4-10.74l3.07.24a8.11,8.11,0,0,0,6.28-2.5,5.09,5.09,0,0,0,1-4.36,7.75,7.75,0,0,0-3.92-5.07l-.44-.25a12.93,12.93,0,0,0-6.29-1.46,16.4,16.4,0,0,0-12.42,5.08m13.9,5.84C77.73,22,79.17,19,81,17.71a5.45,5.45,0,0,1,2.19,3.35,5,5,0,0,1,.09.95,4,4,0,0,1-.93,2.6,5.8,5.8,0,0,1-4.34,2l-2.28-.18Z"/><path class="cls-5" d="M93.83,30.39a16.18,16.18,0,0,1-4.21,1.92,2.13,2.13,0,0,1-.84-.31,5.41,5.41,0,0,0,.61-2.36,3.35,3.35,0,0,0-.06-.68c-.17-.85-.68-1.37-1.34-1.37l-.23.08A2.23,2.23,0,0,0,86.19,27c-2.12,0-4.4,1.85-5.82,3.58-1.63,2-2.42,4.06-2.13,5.57a3,3,0,0,0,2.85,2.35c2.52,0,4.76-1.71,7-5.24a3,3,0,0,0,1.6.46,8.81,8.81,0,0,0,2.72-.94l1.41-2.42m-12.47,6.7c-.69,0-.81-.43-.83-.51-.06-.28,0-.68.46-1.46,2.25-3.42,4.38-6.64,5.45-6.64a.37.37,0,0,1,.25.1,3.19,3.19,0,0,0-.39,1.5,3.26,3.26,0,0,0,0,.5A5.61,5.61,0,0,0,87,32.24C85.4,35.1,83.13,37.09,81.36,37.09Z"/><path class="cls-5" d="M107.62,31.63c-3.16,3-7,5.47-7.75,5.55a6.47,6.47,0,0,1,1.05-1.93c1.16-1.77,2.61-4,2.14-5.73a2.61,2.61,0,0,0-2.68-2.07,4.82,4.82,0,0,0-2.28,1l.54-.94H95.42L84.29,46.67l3.28,0,.15-.29c2.6-5,6.86-12.18,8.13-13.71,1.08-1.27,3.73-3.75,4.65-3.81a.59.59,0,0,1,.66.41A8.2,8.2,0,0,1,100,31.5c-1.16,1.78-2.47,3.79-2,5.38a2.06,2.06,0,0,0,2.15,1.73c.91-.06,3.63-1.84,6.23-4l1.34-3"/><path class="cls-5" d="M121.17,31.15a21.51,21.51,0,0,1-3.61,1.16,2.11,2.11,0,0,1-.83-.31,5.43,5.43,0,0,0,.61-2.35,3.5,3.5,0,0,0-.06-.68c-.17-.85-.68-1.37-1.34-1.37l-.23.08a2.24,2.24,0,0,0-1.58-.65c-2.12,0-4.4,1.85-5.83,3.59-1.63,2-2.42,4.06-2.12,5.56A3,3,0,0,0,109,38.53c2.53,0,4.76-1.71,7-5.24a3,3,0,0,0,1.6.46,8.41,8.41,0,0,0,2.09-.53l1.43-2.07m-11.86,5.94c-.69,0-.81-.43-.83-.51-.06-.28,0-.68.46-1.46,2.25-3.42,4.38-6.64,5.45-6.64a.4.4,0,0,1,.28.11,4.43,4.43,0,0,0-.35,1.76c0,.11,0,.22,0,.33a5.22,5.22,0,0,0,.57,1.58C113.34,35.1,111.07,37.09,109.31,37.09Z"/><path class="cls-5" d="M129.08,27.91a5.69,5.69,0,0,0-.91,3,2,2,0,0,0,0,.39l0,.15a3.7,3.7,0,0,0,.34,1c-2.47,2.88-4.23,4.64-6.71,4.64-.62,0-1.11-.19-1.16-.45,0,0,0-.35.85-1.54l5.3-7.51h-3.32l-3.62,5.26a4.74,4.74,0,0,0-1.09,3.55,2.94,2.94,0,0,0,3.09,2.13c3.21,0,5.59-2.48,7.75-5.1a3.13,3.13,0,0,0,1.37.38.77.77,0,0,0,.69-.4.67.67,0,0,0,0-.68.86.86,0,0,0-.78-.36,1.34,1.34,0,0,1-.56-.16,9,9,0,0,0,.94-3.21,2.59,2.59,0,0,0,0-.47,1.18,1.18,0,0,0-2.15-.61"/><path class="cls-5" d="M134.38,27.34A1.65,1.65,0,1,1,132.73,29a1.65,1.65,0,0,1,1.65-1.65m0,3.05A1.41,1.41,0,1,0,133,29,1.34,1.34,0,0,0,134.38,30.39ZM133.75,28h.74c.44,0,.66.18.66.54a.49.49,0,0,1-.5.54l.55.85h-.34l-.54-.85h-.27V30h-.32Zm.32.83h.38c.24,0,.4,0,.4-.3s-.2-.28-.4-.28h-.37Z"/></symbol></defs><title>Datový zdroj 1</title><g id="Vrstva_2" data-name="Vrstva 2"><g id="Vrstva_1-2" data-name="Vrstva 1"><use width="146.32" height="56.21" transform="scale(3.09)" xlink:href="#logo"/></g></g></svg>